<svg width="1080" height="1080" viewBox="0 0 1080 1080" fill="none" xmlns="http://www.w3.org/2000/svg">
<rect width="1080" height="1080" fill="#F9F4EA"/>
<rect x="72" y="72" width="936" height="936" fill="#F9F4EA"/>
<path d="M136.156 850H103V598H230.577V630.04H136.156V727.24H216.162V758.92H136.156V850Z" fill="#2120DC"/>
<path d="M311.136 819.76C340.327 819.76 350.735 764.68 350.735 723.64C350.735 683.68 340.327 627.88 311.136 627.88C281.944 627.88 271.089 683.68 271.089 723.64C271.089 762.52 281.944 819.76 311.136 819.76ZM311.136 850C261.763 850 237.573 786.64 237.573 723.64C237.573 661 261.763 598 311.136 598C360.509 598 384.611 661 384.611 723.64C384.611 786.64 360.509 850 311.136 850Z" fill="#FF9F14"/>
<path d="M436.64 850H403.485V598H436.64V850Z" fill="#FF4304"/>
<path d="M492.974 850H459.819V663.52H492.974V850ZM476.396 638.68C465.224 638.68 455.854 629.68 455.854 618.16C455.854 607 465.224 598 476.396 598C487.568 598 496.938 607 496.938 618.16C496.938 629.68 487.568 638.68 476.396 638.68Z" fill="#FF9F14"/>
<path d="M676.618 850H641.66L628.686 798.52H557.329L544.716 850H509.758L575.349 598H611.027L676.618 850ZM622.199 768.64L598.774 673.6C596.251 663.88 593.729 648.76 593.729 648.76H593.008C593.008 648.76 590.125 663.88 587.602 673.6L564.177 768.64H622.199Z" fill="#2120DC"/>
<path d="M726.249 850H693.093L689.313 631.84C689.313 619.24 686.791 607 684.628 601.6H714.541C714.541 601.6 718.144 612.4 719.226 624.28H719.946C728.956 610.24 743.732 598 764.634 598C806.079 598 832.923 628.6 832.923 690.88C832.923 752.08 811.66 781.6 770.576 781.6C749.313 781.6 735.619 771.88 726.609 758.2H725.888C725.888 758.2 726.249 769.36 726.249 780.88V850ZM725.888 673.6V706.72C725.888 733.36 732.375 752.08 761.566 752.08C791.118 752.08 799.407 731.2 799.407 690.52C799.407 651.64 787.339 629.32 757.787 629.32C730.037 629.32 725.888 645.88 725.888 673.6Z" fill="#FF4304"/>
<path d="M885.325 850H852.17L848.39 631.84C848.39 619.24 845.868 607 843.705 601.6H873.617C873.617 601.6 877.221 612.4 878.302 624.28H879.023C888.033 610.24 902.809 598 923.711 598C965.156 598 992 628.6 992 690.88C992 752.08 970.737 781.6 929.653 781.6C908.39 781.6 894.695 771.88 885.686 758.2H884.965C884.965 758.2 885.325 769.36 885.325 780.88V850ZM884.965 673.6V706.72C884.965 733.36 891.452 752.08 920.643 752.08C950.195 752.08 958.484 731.2 958.484 690.52C958.484 651.64 946.416 629.32 916.864 629.32C889.114 629.32 884.965 645.88 884.965 673.6Z" fill="#FF9F14"/>
<path d="M317.769 489.204C326.994 510.845 342.394 529.286 362.045 542.22C381.696 555.153 404.724 562.006 428.248 561.919H431.64C471.826 561.809 510.447 546.33 539.585 518.655C569.383 546.548 608.7 562.022 649.515 561.919C673.411 561.938 696.786 554.935 716.735 541.781C736.684 528.626 752.329 509.9 761.725 487.929C773.154 461.341 779.033 432.698 779 403.757V337.871C778.999 336.343 778.546 334.85 777.697 333.579C776.848 332.309 775.642 331.319 774.23 330.735C772.819 330.15 771.266 329.997 769.767 330.295C768.269 330.593 766.892 331.329 765.812 332.409L754.501 343.719C746.577 351.687 737.15 358.004 726.768 362.305C716.386 366.606 705.254 368.804 694.016 368.774H666.674C684.288 346.868 693.929 319.625 694.016 291.516C694.016 289.467 693.202 287.502 691.753 286.053C690.304 284.604 688.339 283.79 686.29 283.79C676.614 283.825 666.976 284.997 657.573 287.282C661.288 276.195 663.187 264.58 663.198 252.887V237.435C663.198 235.386 662.384 233.421 660.935 231.972C659.486 230.524 657.521 229.71 655.472 229.71H640.02C617.576 229.712 595.694 236.735 577.441 249.797C575.594 231.663 569.345 214.254 559.239 199.085L545.912 179.098C545.165 178.099 544.195 177.287 543.079 176.729C541.963 176.17 540.732 175.879 539.485 175.879C538.237 175.879 537.006 176.17 535.89 176.729C534.774 177.287 533.804 178.099 533.057 179.098L519.73 199.085C509.638 214.241 503.393 231.629 501.535 249.743C483.307 236.72 461.467 229.716 439.065 229.71H423.613C421.564 229.71 419.599 230.524 418.15 231.972C416.701 233.421 415.887 235.386 415.887 237.435V252.887C415.896 264.586 417.798 276.206 421.519 287.298C412.087 285.004 402.417 283.827 392.71 283.79C390.661 283.79 388.696 284.604 387.247 286.053C385.798 287.502 384.984 289.467 384.984 291.516C385.071 319.625 394.712 346.868 412.326 368.774H384.984C373.746 368.804 362.614 366.606 352.232 362.305C341.85 358.004 332.423 351.687 324.499 343.719L313.188 332.409C312.108 331.329 310.731 330.593 309.233 330.295C307.734 329.997 306.181 330.15 304.77 330.735C303.358 331.319 302.152 332.309 301.303 333.579C300.454 334.85 300 336.343 300 337.871V403.78C299.967 432.589 305.769 461.107 317.059 487.612L317.769 489.204ZM678.302 299.535C676.274 325.774 664.777 350.382 645.954 368.774H644.571C637.783 368.832 631.008 369.403 624.306 370.481C624.306 369.902 624.461 369.353 624.461 368.774C624.427 359.3 620.888 350.175 614.525 343.155C628.961 333.665 640.905 320.847 649.353 305.778C658.655 302.37 668.384 300.269 678.263 299.535H678.302ZM470.594 373.873C470.195 372.202 469.985 370.492 469.968 368.774C469.968 364.693 471.046 360.684 473.093 357.153C475.139 353.622 478.082 350.694 481.623 348.665C485.164 346.636 489.178 345.578 493.26 345.598C497.341 345.619 501.344 346.716 504.865 348.78C505.975 349.431 507.231 349.796 508.517 349.839C509.804 349.882 511.081 349.603 512.232 349.028C513.383 348.452 514.373 347.598 515.11 346.542C515.847 345.487 516.309 344.264 516.454 342.985C517.089 337.336 519.778 332.118 524.01 328.322C528.241 324.526 533.72 322.418 539.405 322.398C545.089 322.378 550.583 324.447 554.841 328.213C559.099 331.979 561.825 337.179 562.5 342.823C562.602 343.962 562.955 345.064 563.534 346.049C564.113 347.035 564.904 347.88 565.85 348.523C566.795 349.166 567.871 349.591 569 349.767C570.13 349.944 571.285 349.868 572.381 349.545C573.133 349.326 573.847 348.992 574.498 348.556C578.398 346.313 582.869 345.262 587.36 345.531C591.851 345.8 596.164 347.378 599.769 350.071C603.373 352.763 606.11 356.452 607.642 360.681C609.174 364.911 609.435 369.497 608.391 373.873C581.475 381.213 557.441 396.592 539.5 417.957C521.556 396.588 497.515 381.208 470.594 373.873ZM647.746 245.161V252.887C647.767 269.217 643.461 285.261 635.267 299.387C627.073 313.513 615.284 325.216 601.098 333.305C593.02 329.813 583.989 329.194 575.51 331.551C573.499 326.432 570.414 321.803 566.463 317.977L573.803 292.289C575.953 284.758 577.313 277.024 577.859 269.212C594.854 253.722 617.025 245.144 640.02 245.161H647.746ZM532.632 207.622L539.5 197.261L546.399 207.598C554.197 219.296 559.357 232.548 561.524 246.438C563.69 260.328 562.811 274.523 558.946 288.039L552.835 309.424C544.247 306.149 534.753 306.149 526.165 309.424L520.054 288.039C516.193 274.527 515.315 260.336 517.482 246.45C519.648 232.565 524.807 219.316 532.601 207.622H532.632ZM431.339 245.161H439.065C462.016 245.14 484.151 253.68 501.141 269.111C501.678 276.958 503.038 284.726 505.197 292.289L512.537 317.977C508.584 321.803 505.501 326.435 503.498 331.559C495.032 329.199 486.013 329.807 477.941 333.282C463.768 325.188 451.99 313.486 443.805 299.365C435.619 285.245 431.318 269.209 431.339 252.887V245.161ZM400.737 299.535C410.643 300.274 420.399 302.385 429.724 305.809C438.162 320.847 450.084 333.641 464.49 343.117C458.105 350.14 454.551 359.282 454.516 368.774C454.516 369.353 454.648 369.902 454.671 370.481C447.976 369.404 441.21 368.834 434.429 368.774H433.069C414.252 350.379 402.761 325.772 400.737 299.535ZM315.452 356.475C334.178 374.354 359.093 384.298 384.984 384.226H434.429C453.753 384.244 472.794 388.865 489.976 397.707C507.158 406.549 521.987 419.356 533.234 435.069C533.984 436.019 534.94 436.787 536.029 437.315C537.118 437.843 538.313 438.117 539.523 438.117C540.734 438.117 541.928 437.843 543.017 437.315C544.107 436.787 545.062 436.019 545.812 435.069C557.055 419.363 571.876 406.559 589.05 397.717C606.223 388.876 625.255 384.251 644.571 384.226H694.016C719.907 384.298 744.822 374.354 763.548 356.475V403.757C763.577 430.604 758.125 457.175 747.525 481.841C739.317 501.031 725.652 517.386 708.227 528.876C690.803 540.365 670.387 546.483 649.515 546.468C630.341 546.52 611.347 542.769 593.633 535.432C575.918 528.094 559.835 517.316 546.314 503.721L544.97 502.376C544.252 501.658 543.399 501.088 542.46 500.7C541.522 500.311 540.516 500.112 539.5 500.113C538.478 500.117 537.467 500.324 536.525 500.722C535.583 501.12 534.73 501.7 534.015 502.43L532.47 503.976C519.314 517.389 503.624 528.054 486.31 535.349C468.996 542.643 450.405 546.423 431.617 546.468H428.248C407.669 546.533 387.528 540.514 370.359 529.167C353.191 517.819 339.759 501.65 331.753 482.691L331.29 481.571C320.816 456.975 315.428 430.513 315.452 403.78V356.475Z" fill="#FF4304"/>
<path d="M578.129 500.113H624.484C642.918 500.091 660.591 492.758 673.626 479.723C686.661 466.688 693.994 449.015 694.016 430.581C694.016 428.532 693.202 426.567 691.753 425.118C690.305 423.669 688.339 422.855 686.29 422.855H624.824C610.396 422.871 596.563 428.61 586.361 438.812C576.159 449.015 570.42 462.847 570.403 477.276V492.387C570.403 494.436 571.217 496.401 572.666 497.85C574.115 499.299 576.08 500.113 578.129 500.113ZM585.855 477.276C585.867 466.944 589.977 457.039 597.282 449.734C604.588 442.428 614.492 438.319 624.824 438.307H678.016C676.141 451.171 669.702 462.933 659.874 471.443C650.046 479.954 637.485 484.645 624.484 484.661H585.855V477.276ZM454.516 500.113H500.871C502.92 500.113 504.885 499.299 506.334 497.85C507.783 496.401 508.597 494.436 508.597 492.387V477.276C508.581 462.847 502.842 449.015 492.639 438.812C482.437 428.61 468.605 422.871 454.176 422.855H392.71C390.661 422.855 388.696 423.669 387.247 425.118C385.798 426.567 384.984 428.532 384.984 430.581C385.007 449.015 392.34 466.688 405.374 479.723C418.409 492.758 436.082 500.091 454.516 500.113ZM454.176 438.307C464.508 438.319 474.413 442.428 481.718 449.734C489.024 457.039 493.133 466.944 493.145 477.276V484.661H454.516C441.516 484.645 428.954 479.954 419.126 471.443C409.298 462.933 402.859 451.171 400.984 438.307H454.176Z" fill="#FF4304"/>
<path d="M423.613 167.903H408.161V183.355H423.613V167.903Z" fill="#FF4304"/>
<path d="M423.613 137H408.161V152.452H423.613V137Z" fill="#FF4304"/>
<path d="M439.065 152.452H423.613V167.903H439.065V152.452Z" fill="#FF4304"/>
<path d="M408.162 152.452H392.71V167.903H408.162V152.452Z" fill="#FF4304"/>
<path d="M670.839 167.903H655.387V183.355H670.839V167.903Z" fill="#FF9F14"/>
<path d="M670.839 137H655.387V152.452H670.839V137Z" fill="#FF9F14"/>
<path d="M686.29 152.452H670.839V167.903H686.29V152.452Z" fill="#FF9F14"/>
<path d="M655.387 152.452H639.936V167.903H655.387V152.452Z" fill="#FF9F14"/>
<path d="M755.823 283.79H740.371V299.242H755.823V283.79Z" fill="#2120DC"/>
<path d="M755.823 252.887H740.371V268.339H755.823V252.887Z" fill="#2120DC"/>
<path d="M740.371 268.339H724.919V283.79H740.371V268.339Z" fill="#2120DC"/>
<path d="M771.274 268.339H755.822V283.79H771.274V268.339Z" fill="#2120DC"/>
<path d="M338.629 252.887H323.177V268.339H338.629V252.887Z" fill="#FF9F14"/>
<path d="M338.629 283.79H323.177V299.242H338.629V283.79Z" fill="#FF9F14"/>
<path d="M323.177 268.339H307.726V283.79H323.177V268.339Z" fill="#FF9F14"/>
<path d="M354.08 268.339H338.629V283.79H354.08V268.339Z" fill="#FF9F14"/>
</svg>
